<?xml version="1.0" encoding="utf-8"?>
<!-- Generator: Adobe Illustrator 26.5.0, SVG Export Plug-In . SVG Version: 6.00 Build 0)  -->
<svg version="1.1" id="Layer_1" xmlns="http://www.w3.org/2000/svg" xmlns:xlink="http://www.w3.org/1999/xlink" x="0px" y="0px"
	 viewBox="0 0 1080 1080" style="enable-background:new 0 0 1080 1080;" xml:space="preserve">
<style type="text/css">
	.st0{fill:#FFFFFF;}
</style>
<g>
	<path class="st0" d="M700.2,294.5c-20.2-38.9-50.3-68.2-90-85.8c-62.3-27.6-121.5-19.7-176,21.2c-50.3,37.8-74.8,90.2-83.9,150.9
		c-1.5,10.2-2.1,20.5-2.8,30.8c-0.6,7.9-4.8,11.2-12.3,10.6c-7.3-0.6-11.2-4.1-11.1-12.1c0.8-65.2,21.8-122.7,65.4-171.5
		c33.8-37.8,75.8-61.8,126.2-67.9c71.5-8.7,129.8,18.5,177.4,70.8c19.8,21.8,34.2,47,44.6,75.9c8.1,23.6,15.5,45.8,15.9,69.8
		c0,1.7,1.2,3.3,1.6,5.7c0.3,5.5,0.9,10.1,1.2,15.3c-0.3,2.5-0.2,4.4-0.7,6.9c-3.8,8.1-10.7,8.3-16.3,6c-3.4-1.4-6.3-7-7-11.2
		c-2.3-13.2-3.6-26.6-5-40.5c-0.3-2-0.8-3.4-1.2-5.5c-1.2-5.3-2.5-9.9-3.7-15.3C715,330.2,707.6,312.3,700.2,294.5z"/>
	<path class="st0" d="M1005.8,848.3c-1.5-42.9-3.4-85.7-5.7-128.6c-4.9-92.8-10.2-185.7-15.1-278.5c-2.2-41.3-4.3-82.6-5.9-123.9
		c-0.3-8.4-4-10.9-11.5-10.8c-14.1,0.2-28.2,0.1-42.3,0.1c-57.3,0-114.7,0-172-0.1c-5.6,0-11.2-0.5-10.3,7.9
		c4.5,11,9.5,21.8,13.2,33.1c2.7,8.5,3.1,17.7,5.4,26.4c1.5,5.5,4.7,10.5,7.2,16.4c1.6,2.2,3,3.7,4.4,5.9c0,0.6,0.5,1.2,0.4,1.4
		c2.2,4.4,4.5,8.6,6.7,13.5c0.2,1.7,0.5,2.6,0.6,3.9c1.5,11.3-2.8,20.2-10.2,28.5c-1,0.9-1.4,1.5-2.4,2.3c-0.6,0.8-1,1.3-2.1,1.6
		c-8.2,2.5-15.9,5-24.1,7.2c-2.1-0.5-3.6-0.5-5.9-1.1c-15.5-2.9-23.6-12.9-28.4-26c-4.4-11.9-1.2-22.4,7.3-31.6
		c2.1-2.2,3.7-4.9,6-7.8c0.3-3.3,0.1-6.1,0.1-9.8c-0.3-2.8-0.8-4.8-1-7.3c-0.2-1.5-0.6-2.3-1-3.9c-0.3-1.6-0.6-2.5-0.8-3.8
		c-0.2-1.3-0.6-2.2-1-3.8c-4-12.9-7.8-25.1-12.1-37.2c-1.7-4.7-4.3-9-7.5-14.1c-2.2-0.9-3.2-1.3-4.3-1.6c-2.4,0.1-4.9,0.2-8.7,0.2
		c-97.6-0.1-193.8-0.1-290-0.1c-15.8,0-16.8,0-21.6,15.1c-5.7,18.2-9.9,36.8-14.9,55.2c-1.8,6.6,0.7,11.6,4,17.4
		c4.4,7.9,8.8,17.1,8.9,25.8c0.1,16.6-13.8,30.7-29.9,34.2c-14.6,3.1-30.5-4.7-38.8-19c-7.3-12.7-4.2-29.7,6.5-42.6
		c4.4-5.3,7.6-12.1,9.5-18.8c6-20,11.1-40.3,16.6-60.5c0.5-1.7,0.6-3.5,1.1-6.8c-3.8,0-6.8,0-9.8,0c-13.5,0-26.9,0-40.4,0
		c-57.6,0-115.3,0.2-172.9-0.1c-9,0-12.6,3.2-12.5,11.9c0.1,8.5-0.1,16.9-0.6,25.4c-3.4,55.3-7.3,110.6-10.3,165.9
		c-3.3,60-5.9,120.1-8.6,180.1c-2.5,53.8-5,107.6-6.8,161.5c-0.3,8.8,1.1,18.5,4.9,26.3c10.7,21.8,29.4,33,53.7,33.2
		c41.7,0.3,83.3,0,125,0c229,0,458,0.1,687.1,0.1C982,910.7,1007.1,885.3,1005.8,848.3z M345.8,649.7c19.7,8.1,39.2,16.6,59.2,23.8
		c9.6,3.4,13.9,8.5,12.8,18.5c-0.5,4.5-0.1,9.1-0.1,15.9c-8.9-3.5-15.8-5.9-22.5-8.9c-28.9-12.7-57.8-25.6-86.7-38.3
		c-6.7-2.9-12.1-6.4-12.4-14.7c-0.2-8.2,5.6-11.2,11.6-14.2c32.5-16.1,65-32.3,97.6-48.3c3.5-1.7,7.3-2.7,14.1-5.1
		c-2,11.4-3.6,20.3-5.1,29.1c-0.2,0.1-0.4,0.2-0.5,0.3c0,0.1,0,0.1,0,0.2c-25.4,12.1-50.2,23.7-76.8,36.2
		C340.8,646.7,343.1,648.6,345.8,649.7z M438.6,637c-6.6-19.6-6.7-39.2,0.5-58.7c6-16.2,17.4-24.2,34.8-24.8
		c17.3-0.6,30.4,5.8,38.4,21.4c2.1,4.1,3.3,8.7,4.9,13.1c0.4,2.2,0.7,4.4,1,6.6c1.9,14.8,1.3,29-3.8,42.9
		c-6.7,18.6-19.6,27.7-39.6,27.4C458.9,664.8,444.2,653.6,438.6,637z M511.8,719.1c-8.2,15.3-17.6,18.3-35.3,10.4
		c3.1-5.4,6.2-10.6,9.1-16c10.1-19,20.1-38,30.2-56.9c0.8-1.4,1.6-2.8,2.5-4.1c1.4-2,3-4.2,4.6-6.6c4-10.9,6.8-21.1,11.7-30.1
		c6.7-12.1,15-23.3,22.6-34.8c2.8-3.5,4.9-6.8,6.8-10.2c0.7-1.2,1.4-2.5,2.1-3.8c-0.1-1.6-0.3-2-0.5-2.4c0.2-0.1,0.5-0.2,0.7-0.3
		c0.8,0.2,0.7-0.3,0.7-0.3c0.6-0.9,1.2-2.3,1.8-3.7c0.8-0.1,1.1-0.2,1.3-0.2c0,0,0,0,0,0c0,0,0,0,0.1,0c0.4-1.9,0.8-5.1,1.2-5.2
		c10.1-0.1,21-2,30.2,1c6.1,2-0.4,8-3.5,11.5c-0.8,0.1-1.3,0.4-1.6,0.5c-0.1,0.1-0.2,0.2-0.3,0.2c-6.9,13.4-13.8,26.1-20.7,38.7
		c-21.4,36.2-41.5,72.1-61.6,108C513.2,716.3,512.6,717.7,511.8,719.1z M627.7,725c-15.4,15.7-46.7,12.7-58.8-5.6
		c-14.4-21.8-14.2-60.4,0.4-82.2c0.1-0.1,0.2-0.2,0.3-0.3c0.1-0.1,0.1-0.2,0.2-0.2c17.5-18.8,48.3-17.2,62.9,2.7
		C649.4,662.3,647,705.4,627.7,725z M771,659.4c-31.8,14.7-64,28.6-96.1,42.7c-2.9,1.3-5.8,2.4-8.7,3.4c-5.1,1.9-7-0.4-6.9-5.3
		c0.1-4.7,0.2-9.4,0.3-14.1c0.2-6.1,3.6-8.5,7.7-10.2c2-0.8,4.1-1.5,6.2-2.4c0.4-0.2,0.7-0.3,1.1-0.5c0.2-0.1,0.3-0.1,0.5-0.2
		c0.1,0,0.1-0.1,0.2-0.1c19.1-7.9,37.7-15.6,56.3-23.2c2.7-1.1,5.4-2.2,8.1-3.4c-0.3-0.9-0.6-1.8-0.8-2.7
		c-20.6-9.5-41.3-18.9-61.8-28.5c-20.2-9.5-18-5.1-16.9-34.7c4,1,8,1.3,11.4,2.9c33.4,16.4,66.9,32.8,100,49.9
		c4.4,2.3,9.2,8.9,9.2,13.4C780.5,650.9,775.5,657.3,771,659.4z"/>
	<path class="st0" d="M558,580.8c-10.8,21-22.2,42.1-34.2,63.4c3.2-9.4,6-19.5,11-28.5C541.4,603.6,549.8,592.4,558,580.8z"/>
	<path class="st0" d="M597.5,567.5c-1.3-3.5-1.3-10-2.6-10.3c-7.8-1.6-16.2-5.1-24,2.4c-0.2-1.5,0.2-4.8,0.6-4.8
		c10.1-0.1,21-2,30.2,1C607.8,557.9,601.3,563.9,597.5,567.5z"/>
	<path class="st0" d="M575,607c6.3-12.5,13.2-25.1,20.8-38C589.4,581.4,582.5,594.2,575,607z"/>
	<path class="st0" d="M569.5,560.1c0,1.2-0.7,2.5-1.9,4.1C567.7,563,568.3,561.6,569.5,560.1z"/>
	<path class="st0" d="M566.8,564.3c0.4,0.1,0.3,0.9,0,1.1c-0.6-0.1-0.8-0.5-1.1-0.9C566,564.4,566.2,564.3,566.8,564.3z"/>
	<path class="st0" d="M610.2,659.9c0.1,13.5,0.8,26.3-0.4,38.9c-0.3,3.6-5.5,9-9.2,9.6c-6.5,1.1-10.4-4.7-10.6-10.7
		c-0.4-12.4-0.3-25,1.1-37.3c0.4-3.7,5.5-9.2,8.8-9.6C603,650.6,606.6,656.2,610.2,659.9z"/>
	<path class="st0" d="M466.2,593.7c1.2-4,1.6-7.7,3.5-10.4c4.5-6.4,15-5.1,15.8,2.5c1.5,14.7,1.3,29.6,0.5,44.3
		c-0.2,3-6.6,8.5-8.8,8c-3.9-1-9.1-5.5-9.6-9.2C465.9,617.6,466.3,606,466.2,593.7z"/>
</g>
</svg>
