<?xml version="1.0" encoding="utf-8"?>
<!-- Generator: Adobe Illustrator 26.5.0, SVG Export Plug-In . SVG Version: 6.00 Build 0)  -->
<svg version="1.1" id="Layer_1" xmlns="http://www.w3.org/2000/svg" xmlns:xlink="http://www.w3.org/1999/xlink" x="0px" y="0px"
	 viewBox="0 0 1080 1080" style="enable-background:new 0 0 1080 1080;" xml:space="preserve">
<style type="text/css">
	.st0{fill:#E7740B;}
	.st1{fill:#EB7E1A;}
	.st2{fill:#FFFAF6;}
</style>
<g>
	<path class="st0" d="M743,314.4c-0.9-8.4,4.7-7.9,10.3-7.9c57.3,0.1,114.7,0,172,0.1c14.1,0,28.2,0.1,42.3-0.1
		c7.6-0.1,11.2,2.4,11.5,10.8c1.6,41.3,3.7,82.6,5.9,123.9c5,92.8,10.2,185.7,15.1,278.5c2.3,42.8,4.2,85.7,5.7,128.6
		c1.3,37-23.8,62.4-61.1,62.4c-229,0-458,0-687.1-0.1c-41.7,0-83.3,0.3-125,0c-24.3-0.2-43-11.4-53.7-33.2
		c-3.8-7.7-5.2-17.5-4.9-26.3c1.8-53.8,4.4-107.6,6.8-161.5c2.8-60,5.3-120.1,8.6-180.1c3-55.3,6.9-110.6,10.3-165.9
		c0.5-8.4,0.7-16.9,0.6-25.4c-0.1-8.7,3.5-11.9,12.5-11.9c57.6,0.3,115.3,0.1,172.9,0.1c13.5,0,26.9,0,40.4,0c3,0,6,0,9.8,0
		c-0.5,3.3-0.6,5.1-1.1,6.8c-5.4,20.2-10.6,40.5-16.6,60.5c-2,6.6-5.2,13.5-9.5,18.8c-10.7,12.9-13.8,29.9-6.5,42.6
		c8.2,14.3,24.2,22.1,38.8,19c16.2-3.5,30.1-17.6,29.9-34.2c-0.1-8.7-4.5-17.9-8.9-25.8c-3.2-5.8-5.7-10.8-4-17.4
		c5-18.4,9.2-37.1,14.9-55.2c4.7-15.1,5.8-15.1,21.6-15.1c96.2,0,192.4,0,290,0.1c3.9,0,6.3-0.1,8.7-0.2c1.1,0.3,2.1,0.6,4.3,1.6
		c3.3,5.1,5.9,9.4,7.5,14.1c4.3,12.1,8.1,24.3,12.1,37.2c0.4,1.6,0.8,2.5,1,3.8c0.1,1.3,0.5,2.2,0.8,3.8c0.4,1.6,0.8,2.5,1,3.9
		c0.3,2.6,0.7,4.5,1,7.3c0,3.7,0.2,6.5-0.1,9.8c-2.3,2.9-3.9,5.6-6,7.8c-8.5,9.2-11.7,19.7-7.3,31.6c4.8,13.1,13,23.1,28.4,26
		c2.2,0.5,3.8,0.6,5.9,1.1c8.2-2.1,15.9-4.6,24.1-7.2c1.1-0.3,1.5-0.7,2.1-1.6c1-0.8,1.4-1.4,2.4-2.3c7.4-8.3,11.7-17.2,10.2-28.5
		c-0.1-1.3-0.4-2.2-0.6-3.9c-2.2-4.9-4.5-9.1-6.7-13.5c0.1-0.2-0.4-0.7-0.4-1.4c-1.4-2.2-2.8-3.7-4.4-5.9
		c-2.6-5.9-5.8-10.9-7.2-16.4c-2.3-8.7-2.7-17.9-5.4-26.4C752.6,336.2,747.5,325.4,743,314.4 M566.4,564.2c-0.2,0.1-0.5,0.2-0.7,0.3
		c0.3,0.4,0.5,0.8,0.6,2.5c-2.5,4.6-5.1,9.1-8.9,13.9c-7.6,11.6-15.9,22.7-22.6,34.8c-5,9-7.8,19.2-11.7,30.1
		c-2.4,3.6-5.1,6.9-7.2,10.7c-10.2,18.9-20.1,38-30.2,56.9c-2.9,5.4-6,10.6-9.1,16c17.7,7.9,27.1,4.9,35.3-10.4
		c0.7-1.4,1.4-2.8,2.2-4.2c20.1-35.9,40.2-71.9,61.6-108c6.9-12.7,13.8-25.4,20.8-38.9c0,0,0.6-0.4,1.8-0.6
		c3.2-3.5,9.6-9.5,3.5-11.5c-9.2-3-20.1-1.2-30.2-1c-0.4,0-0.9,3.3-1.2,5.2c0,0-0.1,0-1.4,0.2c-0.6,1.4-1.2,2.8-1.8,3.7
		C567.1,563.9,567.2,564.4,566.4,564.2 M569.2,637.1c-14.6,21.9-14.8,60.4-0.4,82.2c12.1,18.3,43.4,21.3,58.8,5.6
		c19.3-19.6,21.7-62.7,4.9-85.7C617.9,619.4,587.2,617.8,569.2,637.1 M517.3,588c-1.6-4.4-2.8-9-4.9-13.1c-8-15.6-21.1-22-38.4-21.4
		c-17.4,0.6-28.8,8.6-34.8,24.8c-7.2,19.5-7.2,39.1-0.5,58.7c5.6,16.6,20.3,27.8,36.2,27.9c20,0.2,32.9-8.9,39.6-27.4
		C520.2,621.8,520.2,605.8,517.3,588 M414.3,607.6c1.6-8.9,3.1-17.8,5.1-29.1c-6.8,2.4-10.6,3.4-14.1,5.1
		c-32.6,16-65.1,32.2-97.6,48.3c-6,3-11.8,6-11.6,14.2c0.2,8.3,5.7,11.8,12.4,14.7c28.9,12.7,57.8,25.6,86.7,38.3
		c6.7,2.9,13.6,5.4,22.5,8.9c0-6.9-0.4-11.4,0.1-15.9c1.1-10.1-3.2-15.1-12.8-18.5c-20-7.1-39.5-15.7-59.2-23.8
		c-2.6-1.1-4.9-3-8.8-5.4C363.6,631.8,388.4,620.1,414.3,607.6 M674.5,672.9c-6.1,3.1-14.7,3.4-15,13.2c-0.1,4.7-0.2,9.4-0.3,14.1
		c-0.1,4.9,1.9,7.2,6.9,5.3c2.9-1.1,5.9-2.2,8.7-3.4c32.1-14.1,64.3-27.9,96.1-42.7c4.5-2.1,9.5-8.5,9.6-13
		c0.1-4.5-4.7-11.1-9.2-13.4c-33.1-17.1-66.5-33.5-100-49.9c-3.4-1.7-7.4-1.9-11.4-2.9c-1.1,29.6-3.4,25.2,16.9,34.7
		c20.5,9.6,41.2,19,61.8,28.5c0.3,0.9,0.6,1.8,0.8,2.7C718.3,654.9,697.1,663.6,674.5,672.9z"/>
	<path class="st1" d="M700.2,294.5c-20.2-38.9-50.3-68.2-90-85.8c-62.3-27.6-121.5-19.7-176,21.2c-50.3,37.8-74.8,90.2-83.9,150.9
		c-1.5,10.2-2.1,20.5-2.8,30.8c-0.6,7.9-4.8,11.2-12.3,10.6c-7.3-0.6-11.2-4.1-11.1-12.1c0.8-65.2,21.8-122.7,65.4-171.5
		c33.8-37.8,75.8-61.8,126.2-67.9c71.5-8.7,129.8,18.5,177.4,70.8c19.8,21.8,34.2,47,44.6,75.9c8.1,23.6,15.5,45.8,15.9,69.8
		c0,1.7,1.2,3.3,1.6,5.7c0.3,5.5,0.9,10.1,1.2,15.3c-0.3,2.5-0.2,4.4-0.7,6.9c-3.8,8.1-10.7,8.3-16.3,6c-3.4-1.4-6.3-7-7-11.2
		c-2.3-13.2-3.6-26.6-5-40.5c-0.3-2-0.8-3.4-1.2-5.5c-1.2-5.3-2.5-9.9-3.7-15.3C715,330.2,707.6,312.3,700.2,294.5z"/>
	<path class="st2" d="M569.7,636.6c17.5-18.8,48.3-17.2,62.9,2.7c16.9,23,14.4,66-4.9,85.7c-15.4,15.7-46.7,12.7-58.8-5.6
		C554.4,697.6,554.6,659,569.7,636.6 M610,659.1c-3.4-3-7-8.5-10.1-8.2c-3.3,0.3-8.4,5.9-8.8,9.6c-1.4,12.3-1.4,24.9-1.1,37.3
		c0.2,5.9,4.1,11.7,10.6,10.7c3.6-0.6,8.8-6,9.2-9.6C611,686.2,610.3,673.4,610,659.1z"/>
	<path class="st2" d="M517.4,588.8c2.8,17,2.8,33-2.9,48.7c-6.7,18.6-19.6,27.7-39.6,27.4c-16-0.2-30.6-11.4-36.2-27.9
		c-6.6-19.6-6.7-39.2,0.5-58.7c6-16.2,17.4-24.2,34.8-24.8c17.3-0.6,30.4,5.8,38.4,21.4C514.5,579,515.7,583.6,517.4,588.8
		 M466,594.5c0.3,11.5-0.1,23.1,1.5,34.5c0.5,3.6,5.8,8.2,9.6,9.2c2.3,0.6,8.7-4.9,8.8-8c0.8-14.7,0.9-29.7-0.5-44.3
		c-0.8-7.6-11.2-8.9-15.8-2.5C467.8,586,467.4,589.6,466,594.5z"/>
	<path class="st2" d="M413.8,608.1c-25.4,12.1-50.2,23.7-76.8,36.2c3.9,2.4,6.2,4.3,8.8,5.4c19.7,8.1,39.2,16.6,59.2,23.8
		c9.6,3.4,13.9,8.5,12.8,18.5c-0.5,4.5-0.1,9.1-0.1,15.9c-8.9-3.5-15.8-5.9-22.5-8.9c-28.9-12.7-57.8-25.6-86.7-38.3
		c-6.7-2.9-12.1-6.4-12.4-14.7c-0.2-8.2,5.6-11.2,11.6-14.2c32.5-16.1,65-32.3,97.6-48.3c3.5-1.7,7.3-2.7,14.1-5.1
		C417.4,589.8,415.9,598.7,413.8,608.1z"/>
	<path class="st2" d="M675.2,672.7c21.9-9,43.2-17.8,64.4-26.5c-0.3-0.9-0.6-1.8-0.8-2.7c-20.6-9.5-41.3-18.9-61.8-28.5
		c-20.2-9.5-18-5.1-16.9-34.7c4,1,8,1.3,11.4,2.9c33.4,16.4,66.9,32.8,100,49.9c4.4,2.3,9.2,8.9,9.2,13.4c-0.1,4.5-5.1,10.9-9.6,13
		c-31.8,14.7-64,28.6-96.1,42.7c-2.9,1.3-5.8,2.4-8.7,3.4c-5.1,1.9-7-0.4-6.9-5.3c0.1-4.7,0.2-9.4,0.3-14.1
		C659.8,676.3,668.4,676.1,675.2,672.7z"/>
	<path class="st2" d="M558.6,580.7c2.5-4.6,5.1-9.1,8.1-14.6c0.4-0.9,0.5-1.7,0.5-1.7s-0.1-0.5,0.4-0.5c1.2-1.3,1.9-2.6,2.5-3.9
		c0,0,0.1,0,0.8-0.3c7.8-7.6,16.2-4.1,24-2.5c1.3,0.3,1.4,6.8,2,10.4c0,0-0.6,0.4-1.2,1c-7.5,13.2-14.5,25.8-21.4,38.4
		C554.2,643,534.1,679,514,714.9c-0.8,1.4-1.4,2.8-2.2,4.2c-8.2,15.3-17.6,18.3-35.3,10.4c3.1-5.4,6.2-10.6,9.1-16
		c10.1-19,20.1-38,30.2-56.9c2-3.8,4.8-7.2,7.8-11.7C535.8,622.9,547.2,601.8,558.6,580.7z"/>
	<path class="st1" d="M558,580.8c-10.8,21-22.2,42.1-34.2,63.4c3.2-9.4,6-19.5,11-28.5C541.4,603.6,549.8,592.4,558,580.8z"/>
	<path class="st0" d="M597.5,567.5c-1.3-3.5-1.3-10-2.6-10.3c-7.8-1.6-16.2-5.1-24,2.4c-0.2-1.5,0.2-4.8,0.6-4.8
		c10.1-0.1,21-2,30.2,1C607.8,557.9,601.3,563.9,597.5,567.5z"/>
	<path class="st1" d="M575,607c6.3-12.5,13.2-25.1,20.8-38C589.4,581.4,582.5,594.2,575,607z"/>
	<path class="st1" d="M569.5,560.1c0,1.2-0.7,2.5-1.9,4.1C567.7,563,568.3,561.6,569.5,560.1z"/>
	<path class="st1" d="M566.8,564.3c0.4,0.1,0.3,0.9,0,1.1c-0.6-0.1-0.8-0.5-1.1-0.9C566,564.4,566.2,564.3,566.8,564.3z"/>
	<path class="st1" d="M610.2,659.9c0.1,13.5,0.8,26.3-0.4,38.9c-0.3,3.6-5.5,9-9.2,9.6c-6.5,1.1-10.4-4.7-10.6-10.7
		c-0.4-12.4-0.3-25,1.1-37.3c0.4-3.7,5.5-9.2,8.8-9.6C603,650.6,606.6,656.2,610.2,659.9z"/>
	<path class="st1" d="M466.2,593.7c1.2-4,1.6-7.7,3.5-10.4c4.5-6.4,15-5.1,15.8,2.5c1.5,14.7,1.3,29.6,0.5,44.3
		c-0.2,3-6.6,8.5-8.8,8c-3.9-1-9.1-5.5-9.6-9.2C465.9,617.6,466.3,606,466.2,593.7z"/>
</g>
</svg>
